<svg width="33" height="30" viewBox="0 0 33 30" fill="none" xmlns="http://www.w3.org/2000/svg">
<path d="M2.91667 2.91667V20.4167H29.1667V2.91667H2.91667ZM2.91667 0H29.1667C29.9402 0 30.6821 0.307291 31.2291 0.854272C31.776 1.40125 32.0833 2.14312 32.0833 2.91667V20.4167C32.0833 21.1896 31.7771 21.9333 31.2229 22.4729C30.6833 23.0271 29.9396 23.3333 29.1667 23.3333H18.9583V26.25H21.875V29.1667H10.2083V26.25H13.125V23.3333H2.91667C2.14375 23.3333 1.4 23.0271 0.860417 22.4729C0.30625 21.9333 0 21.1896 0 20.4167V2.91667C0 1.29792 1.29792 0 2.91667 0ZM14.35 10.1062C14.8021 9.66875 15.4146 9.40625 16.0417 9.40625C16.6687 9.42083 17.2812 9.66875 17.7333 10.1208C18.1708 10.5583 18.4333 11.1708 18.4333 11.7979C18.4333 12.4396 18.1708 13.0375 17.7333 13.4896C17.2812 13.9417 16.6687 14.1896 16.0417 14.1896C15.4146 14.1896 14.8021 13.9271 14.35 13.4896C13.9125 13.0375 13.65 12.4396 13.65 11.7979C13.65 11.1708 13.9125 10.5583 14.35 10.1062ZM13.2271 14.5833C13.5916 14.962 14.0287 15.2631 14.5123 15.4689C14.996 15.6746 15.5161 15.7806 16.0417 15.7806C16.5672 15.7806 17.0874 15.6746 17.571 15.4689C18.0546 15.2631 18.4918 14.962 18.8562 14.5833C19.6 13.8542 20.0229 12.8479 20.0229 11.7979C20.0229 10.7479 19.6 9.72708 18.8562 8.98333C18.1125 8.23958 17.0917 7.81667 16.0417 7.81667C14.9917 7.81667 13.9708 8.23958 13.2271 8.98333C12.4833 9.72708 12.0604 10.7479 12.0604 11.7979C12.0604 12.8479 12.4833 13.8542 13.2271 14.5833ZM7.29167 11.7979C7.98273 10.0402 9.18696 8.53116 10.7476 7.46733C12.3082 6.40351 14.1529 5.83414 16.0417 5.83333C20.0229 5.83333 23.4208 8.3125 24.7917 11.7979C24.1055 13.559 22.9025 15.0713 21.3408 16.1359C19.7791 17.2005 17.9317 17.7675 16.0417 17.7625C12.0604 17.7625 8.6625 15.3125 7.29167 11.7979Z" fill="#4D857F"/>
</svg>
