<svg width="43" height="42" viewBox="0 0 43 42" fill="none" xmlns="http://www.w3.org/2000/svg">
<path d="M19.3297 18.9041C16.9747 20.272 13.9034 24.4842 13.2371 29.3613C12.5714 34.2406 14.2685 38.4316 16.8373 38.6779C19.4061 38.9242 22.4474 34.4358 25.1844 34.0557C27.922 33.6776 32.0278 35.1983 34.8568 33.1547C37.6852 31.1089 32.9073 23.3458 29.5507 20.6299C26.1883 17.9111 23.0639 16.7337 19.3297 18.9041Z" fill="#4D857F"/>
<path d="M34.8041 10.5157C33.1393 9.78512 31.0723 11.16 30.1793 13.572C29.2883 15.9833 29.9082 18.5197 31.5709 19.251C33.2358 19.9815 35.3141 18.6342 36.2072 16.2222C37.101 13.8123 36.4697 11.2485 34.8041 10.5157Z" fill="#4D857F"/>
<path d="M15.9782 17.9952C17.9584 16.7375 18.1133 13.3577 16.2159 10.4978C14.3524 7.62449 11.2678 6.33327 9.32437 7.60066C7.38236 8.8724 7.30787 12.2043 9.16067 15.0523C11.0461 17.8825 14.0038 19.2487 15.9782 17.9952Z" fill="#4D857F"/>
<path d="M9.62223 19.8236C7.56881 18.3429 5.0043 18.4266 4.07125 19.9124C3.14254 21.3969 3.97627 23.8155 6.05509 25.2783C8.12235 26.7425 10.6026 26.7246 11.5885 25.224C12.5758 23.7205 11.6923 21.2965 9.62223 19.8236Z" fill="#4D857F"/>
<path d="M27.7681 9.27011C27.4711 5.87433 25.3219 3.18539 22.9725 3.28074C20.626 3.37756 18.9638 6.20832 19.2494 9.5838C19.5748 12.9415 21.5947 15.6534 23.9164 15.5911C26.2387 15.5309 27.9934 12.6965 27.7681 9.27011Z" fill="#4D857F"/>
</svg>
