<svg width="35" height="27" viewBox="0 0 35 27" fill="none" xmlns="http://www.w3.org/2000/svg">
<path d="M32.4975 6.46876C30.6016 5.87503 28.521 7.6163 27.8425 10.3429C27.1639 13.0696 28.1419 15.7463 30.0378 16.34C31.9312 16.9338 34.0267 15.22 34.7053 12.4933C35.3863 9.76915 34.3909 7.06248 32.4975 6.46876Z" fill="#4D857F"/>
<path d="M12.9594 16.8539C14.9576 15.2523 14.7181 11.5627 12.3133 8.68642C9.94335 5.79013 6.44087 4.75734 4.48507 6.37138C2.52926 7.98292 2.84608 11.6126 5.20103 14.479C7.5884 17.3254 10.9637 18.453 12.9594 16.8539Z" fill="#4D857F"/>
<path d="M6.27603 19.603C3.8687 18.2409 1.09715 18.6426 0.26144 20.3689C-0.566783 22.0927 0.628148 24.6172 3.06292 25.9519C5.48024 27.2965 8.17194 26.9797 9.06253 25.231C9.95312 23.4797 8.70083 20.9526 6.27603 19.603Z" fill="#4D857F"/>
<path d="M24.7064 5.96211C23.978 2.30995 21.3187 -0.349341 18.7817 0.0373287C16.2421 0.423999 14.7802 3.69697 15.4962 7.32668C16.2546 10.9339 18.7742 13.6356 21.2863 13.2889C23.7984 12.9421 25.365 9.65419 24.7064 5.96211Z" fill="#4D857F"/>
</svg>
